PathFileType	4	(X/Y/Z)	Kaydara	
DataRate	CameraRate	NumFrames	NumMarkers	Units	OrigDataRate	OrigDataStartFrame	OrigNumFrames	
60.00	60.00	4	74	mm	60.00	1593	67	
Frame#	Time	Y_rasi			Y_rpsi			Y_lpsi			Y_fneck			Y_bneck			Y_fhead			Y_rhead			Y_rshld			Y_relbtop			Y_relbext			Y_relblow			Y_rwrext			Y_rwrtop			Y_rwrlow			Y_lshld			Y_lelbext			Y_lelblow			Y_lelbtop			Y_lwrext			Y_lwrtop			Y_lwrlow			Y_rtopleg			Y_ltopleg			Y_rkneefr			Y_rkneebk			Y_rkneeis			Y_lkneefr			Y_lknssbk			Y_lkneeis			Y_rankfr			Y_rankis			Y_rankbk			Y_lankfr			Y_lankbk			Y_lankis			Y_lhead			Y_lasi			D_rpsi			D_lpsi			D_fneck			D_bneck			D_fhead			D_rhead			D_lhead			D_rshld			D_relbtop			D_relbext			D_relblow			D_rwrext			D_rwrtop			D_rwrlow			D_lshld			D_lelbext			D_lelblow			D_lelbtop			D_lwrext			D_lwrtop			D_lwrlow			D_rtopleg			D_ltopleg			D_rkneefr			D_rkneebk			D_rkneeis			D_lkneefr			D_lknssbk			D_lkneeis			D_rankfr			D_rankis			D_rankbk			D_lankfr			D_lankbk			D_lankis			D_lasi			D_rasi			
		X1	Y1	Z1	X2	Y2	Z2	X3	Y3	Z3	X4	Y4	Z4	X5	Y5	Z5	X6	Y6	Z6	X7	Y7	Z7	X8	Y8	Z8	X9	Y9	Z9	X10	Y10	Z10	X11	Y11	Z11	X12	Y12	Z12	X13	Y13	Z13	X14	Y14	Z14	X15	Y15	Z15	X16	Y16	Z16	X17	Y17	Z17	X18	Y18	Z18	X19	Y19	Z19	X20	Y20	Z20	X21	Y21	Z21	X22	Y22	Z22	X23	Y23	Z23	X24	Y24	Z24	X25	Y25	Z25	X26	Y26	Z26	X27	Y27	Z27	X28	Y28	Z28	X29	Y29	Z29	X30	Y30	Z30	X31	Y31	Z31	X32	Y32	Z32	X33	Y33	Z33	X34	Y34	Z34	X35	Y35	Z35	X36	Y36	Z36	X37	Y37	Z37	X38	Y38	Z38	X39	Y39	Z39	X40	Y40	Z40	X41	Y41	Z41	X42	Y42	Z42	X43	Y43	Z43	X44	Y44	Z44	X45	Y45	Z45	X46	Y46	Z46	X47	Y47	Z47	X48	Y48	Z48	X49	Y49	Z49	X50	Y50	Z50	X51	Y51	Z51	X52	Y52	Z52	X53	Y53	Z53	X54	Y54	Z54	X55	Y55	Z55	X56	Y56	Z56	X57	Y57	Z57	X58	Y58	Z58	X59	Y59	Z59	X60	Y60	Z60	X61	Y61	Z61	X62	Y62	Z62	X63	Y63	Z63	X64	Y64	Z64	X65	Y65	Z65	X66	Y66	Z66	X67	Y67	Z67	X68	Y68	Z68	X69	Y69	Z69	X70	Y70	Z70	X71	Y71	Z71	X72	Y72	Z72	X73	Y73	Z73	X74	Y74	Z74	

9	26.533	-570.71526	1093.35777	-130.01974	-569.45278	1065.42000	-310.17082	-341.31802	1053.39798	-242.05179	-484.34895	1433.01331	-179.69753	-405.11261	1477.58514	-263.55318	-521.42826	1628.03116	-107.01837	-503.17036	1576.50894	-278.43914	-615.48607	1427.38724	-308.26494	-772.13860	1214.07196	-148.06797	-775.96390	1212.50847	-236.57633	-738.71956	1163.12241	-189.98329	-767.84584	1418.08258	-103.19654	-740.28191	1418.50967	-136.12091	-703.57513	1401.54724	-119.42553	-264.97070	1386.89697	-130.77463	-176.37865	1077.48093	-150.07835	-220.00624	1064.49043	-191.68097	-238.65541	1109.25804	-115.12803	-403.77373	958.75427	-49.63041	-397.04590	975.03525	-10.25677	-411.02516	1018.88237	-18.46946	-646.17172	915.80589	-259.82994	-306.36209	904.05487	-127.51645	-643.29140	413.75801	-280.03010	-622.45937	460.89733	-353.90884	-547.68120	422.94296	-270.22821	-343.68996	474.04861	-118.98055	-283.21259	496.75423	-210.17317	-402.26528	467.78824	-192.01641	-633.53516	143.23707	-330.86292	-563.10394	135.64723	-341.48586	-603.20183	138.06071	-396.36078	-277.44169	132.53646	-170.68516	-261.13819	130.89739	-238.25460	-334.14459	125.26746	-207.43595	-377.39689	1563.67081	-192.99194	-417.85046	1081.02791	-84.77012	-949.37798	1170.58174	574.64779	-1094.77982	1175.20943	473.44856	-956.56990	1603.24051	426.31557	-1044.97810	1650.01190	504.13807	-939.56764	1789.12399	292.31892	-970.68161	1799.71146	468.30318	-1091.20461	1772.63016	378.13492	-849.57474	1555.93277	572.84161	-812.74078	1188.97018	556.88511	-767.58568	1204.55208	605.38559	-839.16382	1189.59099	638.27835	-714.30588	913.21243	565.30262	-691.67992	927.78015	532.65015	-724.70184	931.49071	496.71814	-1200.07645	1544.75052	401.11561	-1208.46748	1172.20604	348.13854	-1173.18161	1152.83470	415.22121	-1145.83626	1181.97487	339.79061	-1142.55501	928.77968	300.85821	-1126.18149	948.80615	263.08039	-1082.64313	952.65190	283.38345	-835.74348	1034.35959	561.87832	-1118.07526	1029.71474	350.52479	-780.95810	557.57511	449.68792	-799.19144	562.36443	561.52176	-892.41905	539.39926	481.03199	-1004.57405	467.51949	357.35058	-1095.56931	515.81146	406.42414	-1007.15157	503.01167	469.43626	-786.12427	194.16637	548.89946	-860.63797	184.47138	528.86902	-840.36858	190.57901	612.25033	-1050.82756	159.21105	410.61626	-1070.41267	155.45310	487.63290	-987.77039	164.00991	444.99840	-1015.68993	1190.02121	335.22541	-843.61252	1187.25525	443.30341 
10	26.550	-570.60970	1093.21732	-129.82267	-569.68445	1065.43320	-310.03206	-341.54854	1053.29185	-242.38676	-484.45492	1432.88971	-179.40481	-405.34233	1477.56897	-263.39947	-521.78288	1628.01178	-107.10707	-503.58498	1576.24374	-278.41848	-615.79430	1427.30911	-307.66539	-772.37679	1213.56110	-148.09840	-776.19774	1212.00363	-236.54076	-738.96210	1162.60559	-190.07971	-767.52129	1417.56027	-103.07539	-740.06042	1417.87704	-136.19276	-703.26492	1400.96649	-119.20504	-264.77247	1386.53915	-131.20035	-176.65125	1076.97968	-151.26745	-220.45784	1064.18472	-192.77372	-238.94287	1108.79036	-116.77552	-403.64376	958.52760	-50.19294	-396.92753	974.70627	-10.78701	-410.88348	1018.75771	-19.06428	-646.45905	915.76668	-259.66444	-306.56139	904.00818	-127.71725	-643.36113	413.71132	-280.01728	-622.59621	460.93418	-353.90537	-547.74220	422.97451	-270.29762	-343.94142	473.92052	-119.59718	-283.25047	496.77547	-210.26157	-402.42794	467.74883	-192.01660	-633.80371	143.35983	-330.78114	-563.09391	135.66781	-341.52626	-603.23608	138.06043	-396.35731	-277.51287	132.53582	-170.71012	-261.15637	130.91403	-238.28497	-334.20845	125.27369	-207.48178	-377.68806	1563.98392	-192.94327	-417.67025	1080.82802	-84.87354	-951.60164	1170.92384	574.41887	-1097.84683	1175.36057	473.19286	-956.75339	1603.93951	424.07024	-1045.42610	1650.22827	501.74179	-941.10794	1791.87820	291.55710	-971.97174	1799.60770	467.63161	-1092.37839	1772.64191	377.67040	-850.51773	1556.10153	571.30615	-818.88626	1188.83568	562.65808	-771.88065	1204.82178	609.42741	-843.75664	1190.70610	641.80740	-720.69351	913.05679	572.84786	-697.67464	926.60927	540.28297	-729.71565	930.49637	503.43925	-1200.37018	1545.21927	398.06526	-1210.86441	1172.34131	347.61486	-1175.53070	1153.23967	414.79137	-1148.31596	1181.98158	338.90141	-1144.55307	928.75587	301.17825	-1128.42987	948.74825	263.31751	-1084.84909	952.74506	283.36906	-837.84187	1034.37675	561.73382	-1120.23689	1029.33846	350.14927	-779.10728	558.08533	446.70982	-797.60460	562.51965	558.39203	-890.92842	539.33228	478.05481	-1005.21835	467.39555	356.34857	-1096.21277	515.49358	405.54592	-1007.68044	502.90363	468.33511	-785.76462	194.40308	547.69310	-860.35423	184.82859	527.70691	-840.08873	191.49017	611.08017	-1050.96054	159.10026	410.31353	-1070.64041	155.42376	487.29473	-988.00110	164.03379	444.76048	-1017.61047	1189.55467	334.60617	-845.76508	1186.89743	443.03402 
11	26.567	-570.55016	1093.12477	-129.63399	-569.98821	1065.45006	-309.81329	-341.68159	1053.22693	-242.81885	-484.69627	1432.87079	-179.04844	-405.61333	1477.66983	-263.07938	-522.30724	1628.08517	-107.11929	-504.14974	1576.02325	-278.32157	-616.13689	1427.29446	-307.12713	-772.59232	1213.08960	-148.27807	-776.48026	1211.49475	-236.78890	-739.11057	1162.17140	-190.19093	-766.67923	1416.95984	-103.08596	-739.57008	1417.19070	-136.51477	-702.58537	1400.19119	-119.51138	-264.57804	1386.20987	-131.63211	-176.93356	1076.56265	-152.07247	-220.71056	1063.80753	-193.56243	-239.12643	1108.40958	-117.78519	-403.57262	958.46138	-50.40421	-396.91196	974.68033	-10.94855	-410.75684	1018.65128	-19.32526	-646.65848	915.73746	-259.62210	-306.80317	903.97171	-127.81779	-643.38394	413.76839	-280.06083	-622.66308	460.94139	-353.96584	-547.74498	423.02101	-270.35389	-343.82622	473.95744	-118.29435	-283.47342	496.77048	-210.10246	-402.55272	467.74857	-191.91067	-633.83465	143.36368	-330.78209	-563.13805	135.65359	-341.50482	-603.26469	138.06404	-396.36772	-277.55239	132.54827	-170.72029	-261.19745	130.95363	-238.24116	-334.26048	125.30354	-207.45661	-378.12538	1564.28940	-192.84451	-417.56306	1080.60448	-85.13788	-953.79517	1171.28319	573.92395	-1099.91005	1175.70518	471.93581	-957.19177	1604.40582	422.40395	-1046.36002	1650.45090	499.73114	-942.50648	1793.99857	291.13617	-973.25745	1799.76105	467.38842	-1093.64769	1773.11554	377.24892	-851.59149	1556.33774	569.93397	-821.65527	1189.08249	565.76336	-776.00456	1205.36606	613.39104	-847.98233	1192.06924	645.91370	-726.34064	913.29491	579.38225	-702.86888	926.22284	546.29871	-735.75569	929.99069	510.42953	-1200.58289	1545.93109	394.75075	-1213.02429	1172.72171	346.95629	-1177.73705	1153.87985	414.11263	-1150.41306	1182.13684	338.16673	-1146.81778	928.70773	301.89157	-1130.89859	948.58215	264.12907	-1087.13768	952.75185	283.58673	-840.05882	1034.34715	561.77895	-1122.81960	1029.06296	350.09087	-776.93909	558.63823	443.81371	-796.53954	562.64416	555.74341	-888.44101	539.14684	474.29897	-1006.19293	467.30064	355.51804	-1097.20825	515.23415	404.97932	-1008.50494	502.80266	467.65808	-785.27611	194.61948	546.77021	-859.96384	185.09733	526.61316	-839.86397	192.34051	609.98787	-1051.28922	158.98442	410.10838	-1070.97794	155.35355	487.12708	-988.28163	164.03410	444.63093	-1019.07211	1189.23851	333.64868	-847.71072	1186.57639	442.78374 
12	26.583	-570.55367	1093.05969	-129.58916	-570.24277	1065.46211	-309.76118	-341.80752	1053.17863	-243.22945	-484.78443	1432.79877	-178.76081	-405.85217	1477.74582	-262.85582	-522.85229	1628.08594	-106.94967	-504.65618	1575.79514	-278.08138	-616.37627	1427.33032	-306.82026	-772.95723	1212.65175	-148.84635	-776.78375	1211.03958	-237.27596	-739.53705	1161.75087	-190.84040	-765.94696	1416.33255	-103.30369	-738.80386	1416.69388	-136.39217	-701.88766	1399.43817	-120.07758	-264.54617	1385.91934	-131.87309	-177.04082	1076.31821	-152.59380	-220.92443	1063.54340	-194.05262	-238.81397	1108.48335	-118.13548	-403.48114	958.38219	-50.58026	-396.86462	974.66904	-11.02961	-410.62122	1018.50410	-19.59632	-646.79428	915.72868	-259.71119	-306.92570	904.02077	-128.04154	-643.41728	413.77136	-280.11972	-622.66193	460.95280	-354.03976	-547.79129	423.01510	-270.40308	-343.93253	474.07711	-117.65152	-283.64923	496.79478	-209.92599	-402.68761	467.76321	-191.79216	-633.67371	143.24833	-330.84610	-563.12881	135.65375	-341.50883	-603.25600	138.04269	-396.38462	-277.59892	132.55517	-170.68771	-261.19204	130.97436	-238.20515	-334.26155	125.29168	-207.43591	-378.88660	1564.61090	-192.48087	-417.51266	1080.45799	-85.30351	-956.03943	1171.56921	573.36174	-1101.25969	1176.56570	470.72445	-957.96570	1604.96002	420.99064	-1047.34283	1650.71655	498.09414	-943.78090	1795.20889	291.01843	-974.40453	1800.51178	467.17163	-1094.75189	1773.83377	377.08080	-852.94746	1556.63895	568.95905	-825.28313	1189.54552	569.24644	-779.48936	1206.01814	616.75808	-851.50383	1193.61450	649.78790	-732.17331	913.70255	585.22144	-708.32146	925.84648	552.41081	-740.62340	930.00710	515.99682	-1200.76813	1546.78696	391.27407	-1214.80049	1173.26340	345.88593	-1179.69299	1154.72404	413.16345	-1152.22900	1182.36801	337.11517	-1149.02977	928.60619	302.77006	-1133.28369	948.26675	264.77770	-1089.50653	952.62688	283.95082	-842.64870	1034.33876	562.14436	-1124.24706	1028.69415	349.17999	-774.61800	559.16931	441.38264	-795.20905	562.70840	552.90676	-886.48827	539.09878	471.31622	-1007.34024	467.25224	355.22507	-1098.29163	514.97383	404.79782	-1009.70154	502.68040	467.47860	-784.80377	195.09054	545.40405	-859.41422	185.71453	525.11505	-839.58290	193.21922	608.71498	-1051.99921	158.86863	409.41620	-1071.28189	155.20224	487.05894	-988.60512	164.04644	444.47601	-1020.40245	1188.84041	332.40955	-849.50569	1186.26083	442.50000 
